<?xml version="1.0" encoding="UTF-8"?>
<svg xmlns="http://www.w3.org/2000/svg" width="512pt" height="512pt" viewBox="0 0 512 512" version="1.1">
    <g id="surface1">
        <path style=" stroke:none;fill-rule:nonzero;fill:rgb(77,77,77);fill-opacity:1;"
              d="M 316 250.71875 C 347.777344 225.222656 360 182.4375 346.484375 144 C 332.96875 105.5625 296.664062 79.84375 255.921875 79.84375 C 215.175781 79.84375 178.871094 105.5625 165.355469 144 C 151.839844 182.4375 164.0625 225.222656 195.839844 250.71875 C 126.335938 276 80.050781 342.039062 80 416 L 80 432 L 432 432 L 432 416 C 431.925781 342 385.570312 275.949219 316 250.71875 Z M 192 176 C 192 140.652344 220.652344 112 256 112 C 291.347656 112 320 140.652344 320 176 C 320 211.347656 291.347656 240 256 240 C 220.652344 240 192 211.347656 192 176 Z M 112.960938 400 C 121.058594 327.070312 182.703125 271.894531 256.078125 271.894531 C 329.457031 271.894531 391.101562 327.070312 399.199219 400 Z M 112.960938 400 " />
    </g>
</svg>
